<svg width="56" height="56" viewBox="0 0 56 56" fill="none" xmlns="http://www.w3.org/2000/svg">
<path fill-rule="evenodd" clip-rule="evenodd" d="M14.8343 8.80647C15.6479 7.99288 15.6479 6.67379 14.8343 5.86019C14.0207 5.0466 12.7016 5.0466 11.888 5.86019L5.63799 12.1102C4.82439 12.9238 4.82439 14.2429 5.63799 15.0565C6.45158 15.8701 7.77067 15.8701 8.58426 15.0565L14.8343 8.80647ZM44.0009 5.86019C43.1873 5.0466 41.8682 5.0466 41.0547 5.86019C40.2411 6.67379 40.2411 7.99288 41.0547 8.80647L47.3047 15.0565C48.1182 15.8701 49.4373 15.8701 50.2509 15.0565C51.0645 14.2429 51.0645 12.9238 50.2509 12.1102L44.0009 5.86019ZM27.9445 13.5833C18.7397 13.5833 11.2778 21.0452 11.2778 30.25C11.2778 39.4547 18.7397 46.9166 27.9445 46.9166C37.1492 46.9166 44.6111 39.4547 44.6111 30.25C44.6111 21.0452 37.1492 13.5833 27.9445 13.5833ZM7.11114 30.25C7.11114 18.744 16.4385 9.41664 27.9445 9.41664C39.4504 9.41664 48.7778 18.744 48.7778 30.25C48.7778 41.7559 39.4504 51.0833 27.9445 51.0833C16.4385 51.0833 7.11114 41.7559 7.11114 30.25ZM27.9444 17.75C29.095 17.75 30.0278 18.6827 30.0278 19.8333V29.1354L35.3499 32.6831C36.3073 33.3213 36.5661 34.6147 35.928 35.5721C35.2898 36.5295 33.9964 36.7883 33.039 36.1502L27.7161 32.6023C27.1456 32.2217 26.6771 31.7056 26.3536 31.1008C26.0302 30.4962 25.8611 29.8211 25.8611 29.1354V19.8333C25.8611 18.6827 26.7938 17.75 27.9444 17.75Z" fill="white"/>
</svg>
