<svg width="201" height="201" viewBox="0 0 201 201" fill="none" xmlns="http://www.w3.org/2000/svg">
<rect x="3" y="3" width="195" height="195" rx="97.5" fill="#D2D7DB"/>
<g clip-path="url(#clip0_1961_44)">
<circle cx="82.5" cy="79.5" r="19.5" fill="white"/>
<circle cx="128" cy="82" r="17" fill="white"/>
<path d="M89 131.58C89 124.93 93.1046 118.967 99.4413 116.95C109.03 113.897 123.219 110 133.181 110C142.774 110 154.105 113.614 161.847 116.608C167.537 118.808 171 124.398 171 130.499V142H89V131.58Z" fill="white"/>
<path d="M28 128.316C28 121.948 31.7671 116.184 37.7435 113.985C48.4459 110.048 65.8575 104.5 79 104.5C92.1425 104.5 109.554 110.048 120.256 113.985C126.233 116.184 130 121.948 130 128.316V145H28V128.316Z" fill="white" stroke="#D2D7DB" stroke-width="7"/>
</g>
<rect x="3" y="3" width="195" height="195" rx="97.5" stroke="#D2D7DB" stroke-width="6"/>
<defs>
<clipPath id="clip0_1961_44">
<rect width="140" height="82" fill="white" transform="translate(31 60)"/>
</clipPath>
</defs>
</svg>
