<svg width="56" height="56" viewBox="0 0 56 56" fill="none" xmlns="http://www.w3.org/2000/svg">
<path fill-rule="evenodd" clip-rule="evenodd" d="M27.1914 6.98989C27.8882 6.64946 28.7219 6.72293 29.3451 7.17966L42.5662 16.8693C43.092 17.2546 43.3976 17.8622 43.3887 18.5043C43.3797 19.1465 43.0573 19.7458 42.521 20.117L30.8915 28.1666L42.521 36.2162C43.0573 36.5874 43.3797 37.1867 43.3887 37.8289C43.3976 38.471 43.092 39.0786 42.5662 39.4639L29.3451 49.1535C28.7219 49.6103 27.8882 49.6837 27.1914 49.3433C26.4947 49.0029 26.0546 48.307 26.0546 47.5458V31.5146L16.0788 38.4195C15.152 39.0611 13.8684 38.8469 13.2118 37.9412C12.5553 37.0355 12.7745 35.7812 13.7013 35.1396L23.7754 28.1666L13.7013 21.1936C12.7745 20.552 12.5553 19.2977 13.2118 18.392C13.8684 17.4863 15.152 17.2721 16.0788 17.9137L26.0546 24.8186V8.78741C26.0546 8.0262 26.4947 7.33032 27.1914 6.98989ZM30.1678 32.5912L37.8412 37.9026L30.1678 43.5264V32.5912ZM30.1678 23.742V12.8068L37.8412 18.4306L30.1678 23.742Z" fill="white"/>
</svg>
