<svg width="41" height="26" viewBox="0 0 41 26" fill="none" xmlns="http://www.w3.org/2000/svg">
<path d="M3 16.5L11.4226 24.4272C11.4646 24.4667 11.5311 24.4626 11.568 24.4184L29 3.5" stroke="#ABB6BA" stroke-width="3" stroke-linecap="square"/>
<path d="M39.6523 3.96028L40.6126 2.80794L38.3079 0.887391L37.3477 2.03972L39.6523 3.96028ZM20.9226 23.9226L19.8619 24.9832L20.9226 23.9226ZM21.0701 23.9159L22.2224 24.8762L21.0701 23.9159ZM16.9393 22.0607L19.8619 24.9832L21.9832 22.8619L19.0607 19.9393L16.9393 22.0607ZM22.2224 24.8762L39.6523 3.96028L37.3477 2.03972L19.9178 22.9556L22.2224 24.8762ZM19.8619 24.9832C20.5272 25.6485 21.6201 25.5989 22.2224 24.8762L19.9178 22.9556C20.4448 22.3232 21.4011 22.2798 21.9832 22.8619L19.8619 24.9832Z" fill="#ABB6BA"/>
</svg>
