<svg width="24" height="24" viewBox="0 0 24 24" fill="none" xmlns="http://www.w3.org/2000/svg">
<path d="M9.24902 20.001C9.24902 21.5114 10.4896 22.752 12 22.752C13.5104 22.752 14.751 21.5114 14.751 20.001C14.751 18.4909 13.5104 17.25 12 17.25C10.4896 17.25 9.24902 18.4909 9.24902 20.001ZM9.24902 4.00098C9.24902 5.51141 10.4896 6.75195 12 6.75195C13.5104 6.75195 14.751 5.51141 14.751 4.00098C14.751 2.49086 13.5104 1.25 12 1.25C10.4896 1.25 9.24902 2.49086 9.24902 4.00098ZM9.25 12.001C9.25 13.5112 10.4903 14.751 12 14.751C13.5099 14.751 14.75 13.5109 14.75 12.001C14.75 10.4911 13.5099 9.25098 12 9.25098C10.4901 9.25098 9.25 10.4911 9.25 12.001Z" fill="white"/>
</svg>
