<svg width="56" height="56" viewBox="0 0 56 56" fill="none" xmlns="http://www.w3.org/2000/svg">
<path fill-rule="evenodd" clip-rule="evenodd" d="M46.4725 12.8892C46.4725 11.3704 45.2413 10.1392 43.7225 10.1392C42.2037 10.1392 40.9725 11.3704 40.9725 12.8892V43.4447C40.9725 44.9635 42.2037 46.1947 43.7225 46.1947C45.2413 46.1947 46.4725 44.9635 46.4725 43.4447V12.8892ZM25.9997 29.083C25.9997 27.5642 24.7685 26.333 23.2497 26.333C21.7309 26.333 20.4997 27.5642 20.4997 29.083V43.4441C20.4997 44.9629 21.7309 46.1941 23.2497 46.1941C24.7685 46.1941 25.9997 44.9629 25.9997 43.4441V29.083ZM13.167 34.5836C14.6858 34.5836 15.917 35.8148 15.917 37.3336V43.4447C15.917 44.9635 14.6858 46.1947 13.167 46.1947C11.6482 46.1947 10.417 44.9635 10.417 43.4447V37.3336C10.417 35.8148 11.6482 34.5836 13.167 34.5836ZM36.389 21.139C36.389 19.6202 35.1578 18.389 33.639 18.389C32.1203 18.389 30.8891 19.6202 30.8891 21.139V43.4446C30.8891 44.9634 32.1203 46.1946 33.639 46.1946C35.1578 46.1946 36.389 44.9634 36.389 43.4446V21.139Z" fill="white"/>
</svg>
