<svg width="56" height="56" viewBox="0 0 56 56" fill="none" xmlns="http://www.w3.org/2000/svg">
<path fill-rule="evenodd" clip-rule="evenodd" d="M17.5044 16.6549C20.8296 15.2735 24.3956 14.5646 27.9964 14.5693L27.9996 14.5693C35.5734 14.5693 42.4237 17.6443 47.3783 22.6199C48.3308 23.5765 49.8786 23.5798 50.8352 22.6272C51.7919 21.6746 51.7951 20.1269 50.8425 19.1703C45.0083 13.3113 36.9267 9.68088 28.0012 9.68045C23.7551 9.67512 19.55 10.5111 15.6287 12.1401C11.707 13.7693 8.14705 16.1595 5.1544 19.1725C4.20303 20.1303 4.20827 21.6781 5.16612 22.6294C6.12396 23.5808 7.67169 23.5756 8.62307 22.6177C11.1606 20.063 14.1791 18.0363 17.5044 16.6549ZM28.0012 9.68045L27.9996 9.68044V12.1249L28.0028 9.68045L28.0012 9.68045ZM20.859 25.1912C23.1152 24.228 25.5434 23.7329 27.9965 23.736H28.0026C30.4557 23.7329 32.884 24.228 35.1401 25.1912C37.3962 26.1544 39.4333 27.5657 41.1279 29.3395C42.0605 30.3157 43.6078 30.351 44.584 29.4184C45.5601 28.4859 45.5955 26.9385 44.6629 25.9624C42.5112 23.71 39.9245 21.918 37.0597 20.6949C34.1958 19.4723 31.1135 18.8436 27.9996 18.8471C24.8856 18.8436 21.8034 19.4723 18.9395 20.6949C16.0746 21.918 13.488 23.71 11.3362 25.9624C10.4037 26.9385 10.439 28.4859 11.4152 29.4184C12.3913 30.351 13.9387 30.3157 14.8712 29.3395C16.5658 27.5657 18.6029 26.1544 20.859 25.1912ZM27.9996 18.8471L27.9965 18.8471L27.9996 21.2916L28.0026 18.8471L27.9996 18.8471ZM24.2773 33.704C25.4458 33.1744 26.714 32.9012 27.9968 32.9027H27.9996C30.7014 32.9027 33.1238 34.0892 34.7788 35.9754C35.6692 36.9902 37.2136 37.091 38.2284 36.2007C39.2432 35.3103 39.3441 33.7658 38.4537 32.7511C35.9106 29.8526 32.169 28.0142 28.0009 28.0138L28.0023 28.0138L27.9996 30.4582V28.0138H28.0009C26.0207 28.0117 24.063 28.4336 22.2593 29.251C20.4552 30.0686 18.8471 31.263 17.543 32.7538C16.6542 33.77 16.7574 35.3143 17.7735 36.2031C18.7897 37.092 20.334 36.9887 21.2228 35.9726C22.0674 35.007 23.1089 34.2335 24.2773 33.704ZM31.3333 40.9999C31.3333 42.6874 29.9653 44.0554 28.2778 44.0554C26.5902 44.0554 25.2222 42.6874 25.2222 40.9999C25.2222 39.3123 26.5902 37.9443 28.2778 37.9443C29.9653 37.9443 31.3333 39.3123 31.3333 40.9999Z" fill="white"/>
</svg>
